<svg width="22" height="23" viewBox="0 0 22 23" fill="none" xmlns="http://www.w3.org/2000/svg">
<path d="M7.33333 2.875C4.80608 2.875 2.75 5.02454 2.75 7.66667V15.3333C2.75 17.9755 4.80608 20.125 7.33333 20.125H14.6667C17.1939 20.125 19.25 17.9755 19.25 15.3333V7.66667C19.25 5.02454 17.1939 2.875 14.6667 2.875H7.33333ZM7.33333 4.79167H14.6667C16.1828 4.79167 17.4167 6.08158 17.4167 7.66667V15.3333C17.4167 16.9184 16.1828 18.2083 14.6667 18.2083H7.33333C5.81717 18.2083 4.58333 16.9184 4.58333 15.3333V7.66667C4.58333 6.08158 5.81717 4.79167 7.33333 4.79167ZM15.5833 5.75C15.3402 5.75 15.1071 5.85097 14.9352 6.03069C14.7632 6.21041 14.6667 6.45417 14.6667 6.70833C14.6667 6.9625 14.7632 7.20625 14.9352 7.38598C15.1071 7.5657 15.3402 7.66667 15.5833 7.66667C15.8264 7.66667 16.0596 7.5657 16.2315 7.38598C16.4034 7.20625 16.5 6.9625 16.5 6.70833C16.5 6.45417 16.4034 6.21041 16.2315 6.03069C16.0596 5.85097 15.8264 5.75 15.5833 5.75ZM11 6.70833C8.47275 6.70833 6.41667 8.85787 6.41667 11.5C6.41667 14.1421 8.47275 16.2917 11 16.2917C13.5273 16.2917 15.5833 14.1421 15.5833 11.5C15.5833 8.85787 13.5273 6.70833 11 6.70833ZM11 8.625C12.5162 8.625 13.75 9.91492 13.75 11.5C13.75 13.0851 12.5162 14.375 11 14.375C9.48383 14.375 8.25 13.0851 8.25 11.5C8.25 9.91492 9.48383 8.625 11 8.625Z" fill="black"/>
</svg>
